<?xml version="1.0" encoding="utf-8"?>
<!-- Generator: Adobe Illustrator 24.0.3, SVG Export Plug-In . SVG Version: 6.00 Build 0)  -->
<svg version="1.1" id="Layer_1" xmlns="http://www.w3.org/2000/svg" xmlns:xlink="http://www.w3.org/1999/xlink" x="0px" y="0px"
	 viewBox="0 0 3300.3 550.1" style="enable-background:new 0 0 3300.3 550.1;" xml:space="preserve">
<style type="text/css">
	.st0{fill:#D4D8D3;}
</style>
<path class="st0" d="M1861.2,151.3l-26.3,63.3l-28.6-63.3h-35.7v88.4l-37.2-88.4h-32.5l-39.2,93.3h23.8l8.5-20.8h45.6l8.4,20.8h44.5
	v-73.2l31.8,73.2h19.2l31.7-73.1l0.1,73.1h22.4v-93.3L1861.2,151.3L1861.2,151.3z M1731.5,204.4h-29.9l14.9-37.2L1731.5,204.4
	L1731.5,204.4z"/>
<polygon class="st0" points="1987.1,244.6 1914,244.6 1914,151.3 1987.1,151.3 1987.1,170.7 1935.8,170.7 1935.8,187.6 
	1985.8,187.6 1985.8,206.7 1935.8,206.7 1935.8,225.3 1987.1,225.3 "/>
<path class="st0" d="M2090.2,176.4c0-10.4-4.2-16.5-11.1-20.7c-7.1-4.2-15.3-4.5-26.5-4.5h-50.3v93.3h21.9v-34h23.5
	c7.9,0,12.8,0.7,16,4c4,4.5,3.5,12.6,3.5,18.2l0.1,11.8h22.1v-18.3c0-8.3-0.5-12.5-3.6-17.1c-1.9-2.7-6-6-10.8-7.9
	C2080.4,199,2090.2,191.3,2090.2,176.4L2090.2,176.4z M2061.5,189.5c-3,1.9-6.6,1.9-10.8,1.9h-26.6v-20.7h26.9
	c3.8,0,7.8,0.2,10.4,1.7c2.8,1.4,4.6,4.3,4.6,8.3C2066,184.7,2064.4,188,2061.5,189.5L2061.5,189.5z"/>
<rect x="2102.9" y="151.3" class="st0" width="22.3" height="93.3"/>
<path class="st0" d="M2361.9,151.3v65l-38.5-65h-33.3v88.3l-37.1-88.3h-32.8l-30.8,73.4h-9.8c-5.8,0-11.9-1.1-15.3-4.8
	c-4.1-4.7-6-11.9-6-21.9c0-9.8,2.6-17.2,6.3-21.1c4.3-4.3,8.9-5.5,16.8-5.5h20.7v-20H2181c-15.1,0-26.2,3.4-33.2,10.9
	c-9.4,10-11.8,22.7-11.8,36.5c0,17,4,27.7,11.7,35.6c7.6,7.9,21.1,10.3,31.7,10.3h25.6l8.3-20.8h45.5l8.5,20.8h44.6v-70.1l41.5,70.1
	h31l0,0v-93.3L2361.9,151.3L2361.9,151.3z M2251.2,204.4H2221l15.1-37.2L2251.2,204.4z"/>
<path class="st0" d="M2048.5,311.8h-69.9l-27.8,30.6l-26.9-30.6h-88v93.4h86.7l28-30.9l27,30.9h42.5v-31.3h27.3
	c19.1,0,38.1-5.4,38.1-31.3C2085.4,316.7,2065.9,311.8,2048.5,311.8L2048.5,311.8z M1911.4,385.7h-53.8v-18.6h48v-19h-48v-17h54.9
	l23.9,27.2L1911.4,385.7L1911.4,385.7z M1998.2,396.7l-33.6-38l33.6-36.8V396.7z M2048.2,354.9H2020v-23.8h28.5
	c7.9,0,13.4,3.3,13.4,11.4C2061.9,350.7,2056.7,354.9,2048.2,354.9L2048.2,354.9z"/>
<polygon class="st0" points="2195.9,311.8 2269,311.8 2269,331.1 2217.7,331.1 2217.7,348.1 2267.7,348.1 2267.7,367.2 
	2217.7,367.2 2217.7,385.7 2269,385.8 2269,405.2 2195.9,405.2 "/>
<path class="st0" d="M2168.3,361.8c5.8-2.3,15.5-9.9,15.5-24.8c0-10.7-4.3-16.5-11.3-20.7c-7.2-3.9-15.3-4.4-26.3-4.4h-50.5v93.4h22
	v-34.1h23.4c8,0,12.9,0.8,16.1,4.1c4.1,4.3,3.5,12.7,3.5,18.3v11.7h22v-18.5c-0.1-8.2-0.5-12.5-3.6-17
	C2177.1,366.9,2173.1,363.6,2168.3,361.8L2168.3,361.8z M2155,350.2c-2.9,1.8-6.5,1.9-10.8,1.9h-26.6v-21h27c3.9,0,7.8,0.1,10.4,1.7
	c2.8,1.5,4.5,4.4,4.5,8.4C2159.6,345.2,2157.9,348.4,2155,350.2L2155,350.2z"/>
<path class="st0" d="M2352.5,356c4.3,4.5,6.5,10.2,6.5,19.8c0,20.1-12.3,29.5-34.4,29.5h-42.6v-20h42.5c4.2,0,7.1-0.6,8.9-2.3
	c1.5-1.4,2.6-3.5,2.6-6.1c0-2.7-1.2-4.9-2.7-6.2c-1.7-1.4-4-2.1-7.8-2.1c-20.5-0.7-46.1,0.6-46.1-28.9c0-13.5,8.3-27.8,31.3-27.8
	h43.9v19.9h-40.1c-4,0-6.6,0.2-8.8,1.7c-2.4,1.5-3.3,3.8-3.3,6.7c0,3.5,2,5.9,4.8,7c2.3,0.8,4.8,1.1,8.5,1.1l11.8,0.3
	C2339.4,348.7,2347.6,350.8,2352.5,356L2352.5,356z"/>
<path class="st0" d="M2391.1,334.3c2.2-1.5,4.9-1.7,8.9-1.7h39.9V70.9c0-23.6-18.6-42.6-41.5-42.6h-695.5
	c-22.9,0-41.5,19.1-41.5,42.6v124.3l26.5-62.1h57.1l7.4,15.4v-15.4h66.9l14.6,33.7l14.3-33.7h212.5c9.7,0,18.3,1.8,24.7,7.6v-7.6
	h58.2v7.6c10-5.6,22.4-7.6,36.5-7.6h84.3l7.8,15.4v-15.4h62.4l8.5,15.4v-15.4h60.8v130.6h-61.4l-11.6-19.8v19.8h-76.7l-8.3-20.8
	h-18.9l-8.5,20.8h-39.8c-15.6,0-27.5-3.8-35.1-7.9v7.9h-94.6V234c0-4.2-0.7-4.4-3.2-4.5h-3.5l0.1,34.1h-182.9v-16.1l-6.6,16.2h-38.2
	l-6.6-16v15.9h-73.6l-8.4-20.8h-18.9l-8.4,20.8h-37.4v0h0v223.9c0,23.6,18.6,42.6,41.5,42.6h695.5c22.9,0,41.5-19.1,41.5-42.6v-93.2
	l0,0v24.3c-8.8,4.3-20.3,6-32.1,6H2351v-8.4c-6.6,5.4-18.4,8.4-29.8,8.4h-178.8v-30.2c0-3.7-0.4-3.9-4-3.9h-2.8v34.1h-58.9v-35.3
	c-9.9,4.4-21,4.7-30.5,4.6h-7v30.7l-71.4-0.1l-17.5-20.3l-18.6,20.3H1816V294.1h118l16.9,20l18.1-20h79c9.1,0,24.1,1,30.8,7.6v-7.6
	h70.6c6.6,0,21,1.4,29.5,7.6v-7.6h107v7.6c5.3-5.2,16.6-7.6,26.1-7.6h59.9v7.6c6.3-4.7,15.2-7.6,27.4-7.6h40.5v18.6h-43.6
	c-23,0-31.4,14.3-31.4,27.9c0,29.6,25.6,28.3,46.2,29c3.8,0,6.1,0.6,7.7,2.1c1.6,1.3,2.7,3.5,2.7,6.2c0,2.3-0.9,4.5-2.6,6.1
	c-1.8,1.8-4.7,2.3-8.9,2.3h-42.1v20.1h42.3c14,0,24.4-4,29.7-12v0h0v-35.1c-0.6-0.8-1.1-1.6-2-2.3c-4.9-5.1-12.9-7.2-24.8-7.5
	l-11.9-0.3c-3.6,0-6.1-0.2-8.4-1.1c-2.8-1-4.8-3.4-4.8-7C2387.9,338.1,2388.8,335.8,2391.1,334.3L2391.1,334.3z"/>
<path class="st0" d="M760,29.5H65.4c-22.9,0-41.5,19-41.5,42.4v414.6c0,23.4,18.6,42.4,41.5,42.4H760c22.9,0,41.5-19,41.5-42.4V71.9
	C801.4,48.5,782.9,29.5,760,29.5z M178.4,383.1l-49.2-180.3c-17-9.6-36.4-17.4-58.1-22.8l0.7-4.3H161c12,0.5,21.7,4.4,25.1,17.5
	l19.4,95.4l0,0l5.8,28.8l54.2-141.6H324L236.9,383L178.4,383.1L178.4,383.1z M367.1,383.3h-55.3l0,0l34.6-207.6h55.3L367.1,383.3
	L367.1,383.3z M463.3,386.4c-24.8-0.3-48.7-5.3-61.6-11.1l7.8-46.5l7.1,3.3c18.2,7.8,29.9,10.9,52.1,10.9c15.9,0,33-6.4,33.1-20.3
	c0.1-9.1-7.1-15.6-28.7-25.8c-21-9.9-48.8-26.6-48.5-56.4c0.3-40.4,38.8-68.5,93.5-68.5c21.4,0,38.6,4.5,49.6,8.7l-7.5,45l-5-2.4
	c-10.2-4.2-23.3-8.2-41.4-8c-21.7,0-31.7,9.2-31.7,17.9c-0.1,9.7,11.7,16.1,31.1,25.7c31.9,14.8,46.6,32.8,46.4,56.4
	C559.2,358.5,521.5,386.4,463.3,386.4L463.3,386.4z M703,383.4c0,0-5.1-23.8-6.7-31.1c-8.1,0-64.5-0.1-70.8-0.1
	c-2.1,5.6-11.6,31.2-11.6,31.2h-58.1l82.2-190.3c5.8-13.5,15.7-17.2,29-17.2h42.7l44.8,207.5L703,383.4L703,383.4z"/>
<path class="st0" d="M641.3,309.7c4.6-12,22-58,22-58c-0.3,0.6,4.5-12,7.3-19.8l3.7,17.9c0,0,10.6,49.6,12.8,59.9L641.3,309.7
	L641.3,309.7L641.3,309.7z"/>
<path class="st0" d="M2577.2,255.6c-6.9,6-15.9,8.6-30.2,8.6h-5.9v-71.7h5.9c14.2,0,22.9,2.4,30.2,8.8c7.6,6.5,12.2,16.6,12.2,27
	C2589.4,238.7,2584.8,249.1,2577.2,255.6z"/>
<path class="st0" d="M3169.4,224h-6.4v-32.9h6.8c13.7,0,21.2,5.5,21.2,16.1C3190.9,218.2,3183.5,224,3169.4,224z"/>
<path class="st0" d="M3223.5,27.5H2528c-22.9,0-41.5,19-41.5,42.4v414.6c0,23.4,18.6,42.4,41.5,42.4h695.5c22.9,0,41.5-19,41.5-42.4
	V69.9C3265,46.5,3246.4,27.5,3223.5,27.5L3223.5,27.5z M3140.9,174.1h32.7c25.4,0,40,11.7,40,32c0,16.6-9.1,27.5-25.7,30.8
	l35.6,45.7h-27.1l-30.5-43.6h-2.9v43.6h-22V174.1L3140.9,174.1z M3063.9,174.1h62.5v18.4h-40.5v24.1h39v18.4h-39v29.3h40.5v18.4
	h-62.5V174.1L3063.9,174.1z M2969.4,173.9l30.1,72.9l30.5-72.9h23.9l-48.8,111.3h-11.9l-47.9-111.3L2969.4,173.9L2969.4,173.9z
	 M2832,228.3c0-31.9,26.9-57.7,60.1-57.7c33.2,0,60.1,25.8,60.1,57.7v0c0,31.9-26.9,57.7-60.1,57.7
	C2858.9,286,2832,260.2,2832,228.3L2832,228.3L2832,228.3z M2737.5,228.1c0-31.5,26.8-56.8,60.1-56.8c9.5,0,17.4,2,27.1,6.7v24.9
	c-9.2-8.6-17.1-12.2-27.6-12.2c-20.7,0-36.9,16.4-36.9,37.3c0,22,15.8,37.4,37.9,37.4c10,0,17.8-3.4,26.6-11.9v24.9
	c-10,4.5-18.1,6.3-27.6,6.3C2763.6,284.7,2737.5,260,2737.5,228.1L2737.5,228.1z M2701.3,239.1c-2.2-1.3-6.6-3.3-15.2-6.2
	c-20.7-7.2-27.8-14.8-27.8-29.8c0-17.8,15.2-31.1,35.2-31.1c12.4,0,23.7,4.1,33.2,12l-11.5,14.5c-5.7-6.2-11.2-8.8-17.8-8.8
	c-9.5,0-16.4,5.2-16.4,12c0,5.9,3.9,9,17.1,13.7c25.1,8.8,32.5,16.6,32.5,33.8c0,21-16.1,35.6-39,35.6c-16.8,0-29-6.3-39.1-20.7
	l14.2-13.2c5.1,9.4,13.5,14.5,24.1,14.5c9.8,0,17.1-6.5,17.1-15.3C2707.9,245.7,2705.7,241.8,2701.3,239.1L2701.3,239.1z
	 M2591.6,270.1c-10.8,8.6-23.2,12.5-40.3,12.5h-32.2V174.1h32.3c35.7,0,60.6,22.3,60.6,54.3C2612.1,244.4,2604.4,259.8,2591.6,270.1
	L2591.6,270.1z M2622.2,174.1h22v108.5h-22L2622.2,174.1z M3255.5,481.9c0,19.9-15.8,36-35.3,36h-578.6
	c397.1-70,613.9-226.3,613.9-226.3L3255.5,481.9L3255.5,481.9z"/>
<path class="st0" d="M1578.1,27.7H883.5c-22.9,0-41.5,19-41.5,42.4v414.2c0,23.4,18.6,42.4,41.5,42.4h694.6
	c22.9,0,41.5-19,41.5-42.4V70.1C1619.6,46.7,1601,27.7,1578.1,27.7z M1360.2,493.1c-48.7,0-93.6-16.9-129.4-45.1
	c-35.8,28.2-80.7,45.1-129.3,45.1c-116.7,0-211.7-96.9-211.7-215.9c0-119.1,95-215.9,211.7-215.9c48.7,0,93.6,16.8,129.3,45.1
	c35.8-28.3,80.7-45.1,129.4-45.1c116.7,0,211.7,96.8,211.7,215.9C1571.8,396.2,1476.9,493.1,1360.2,493.1z"/>
<path class="st0" d="M1060.1,291c-2.1-0.2-3-0.3-4.4-0.3c-11.3,0-16.9,3.9-16.9,11.7c0,4.8,2.8,7.9,7.1,7.9
	C1053.9,310.3,1059.8,302.4,1060.1,291z"/>
<path class="st0" d="M1391.1,291c-2.1-0.2-3-0.3-4.5-0.3c-11.2,0-16.9,3.9-16.9,11.7c0,4.8,2.8,7.9,7.1,7.9
	C1384.9,310.3,1390.7,302.4,1391.1,291L1391.1,291z"/>
<path class="st0" d="M1221.7,277.9c0.1-1.6,2.1-13.8-9.2-13.8c-6.3,0-10.8,4.9-12.6,13.8H1221.7z"/>
<path class="st0" d="M1488,307.6c9.2,0,15.8-10.7,15.8-26c0-9.8-3.7-15.1-10.5-15.1c-9,0-15.4,10.7-15.4,25.9
	C1477.8,302.5,1481.2,307.6,1488,307.6L1488,307.6z"/>
<path class="st0" d="M1359.5,80.7c-42.9,0-82.5,14.4-114.5,38.6c29,27.6,50.5,63.4,60.7,103.8h-19.6c-10-35.7-29.7-67.2-55.9-91.5
	c-26.2,24.3-45.8,55.8-55.8,91.5h-19.6c10.3-40.4,31.7-76.2,60.7-103.8c-32-24.2-71.6-38.6-114.5-38.6
	c-106.3,0-192.5,88.1-192.5,196.8c0,108.7,86.2,196.8,192.5,196.8c42.9,0,82.5-14.4,114.5-38.6c-27.3-26-47.9-59.3-58.8-96.8h19.8
	c10.5,32.8,29.2,61.8,53.7,84.4c24.5-22.6,43.2-51.6,53.7-84.4h19.8c-10.9,37.5-31.5,70.8-58.8,96.8c32,24.2,71.6,38.6,114.5,38.6
	c106.3,0,192.5-88.1,192.5-196.8C1552,168.8,1465.8,80.7,1359.5,80.7L1359.5,80.7z M988,325.4l11.4-72.9L974,325.4h-13.5l-1.7-72.5
	l-11.9,72.5h-18.6l15.5-94.8h28.6l0.8,58.7l19.3-58.7h30.8l-15.4,94.8H988z M1080.5,284.5c-1.7,11.1-5.4,35.1-5.9,40.9h-16.5l0.4-8
	c-5,6.3-11.7,9.3-20.8,9.3c-10.8,0-18.1-8.6-18.1-21c0-18.8,12.8-29.7,34.8-29.7c2.3,0,5.1,0.2,8.1,0.6c0.6-2.6,0.8-3.6,0.8-5
	c0-5.1-3.4-7-12.7-7c-9.7-0.1-17.7,2.4-21,3.5c0.2-1.3,2.8-17.3,2.8-17.3c9.9-3,16.4-4.1,23.8-4.1c17,0,26.1,7.8,26.1,22.6
	C1082.1,273.1,1081.5,278,1080.5,284.5z M1134.2,266c-5-0.7-10.4-1.2-14.2-1.2c-6.4,0-9.7,2.1-9.7,6.3c0,3.6,1,4.5,9.3,8.4
	c10,4.7,14,10.8,14,21.5c0,17.6-9.7,25.8-30.6,25.8c-12.1-0.4-16.1-1.3-20.7-2.3l2.7-17.8c6.4,2.1,11.9,3,17.8,3
	c7.9,0,11.4-2.2,11.4-6.9c0-3.5-1.2-4.6-9.3-8.5c-10.5-5.1-15.1-11.8-15.1-21.5v0c-0.1-14.3,7.6-26.1,29.8-26.1
	c4.5,0,12.3,0.7,17.5,1.5L1134.2,266L1134.2,266z M1175.7,266.8h-10.2c-2.3,14.6-5.5,32.9-5.6,35.3c0,4,2.1,5.7,6.8,5.7
	c2.3,0,4-0.3,5.3-0.7l-2.6,17.1c-5.5,1.7-9.7,2.5-14.3,2.5c-10.1,0-15.7-6-15.7-17c-0.1-3.4,1.5-12.4,2.7-20.6
	c1.1-7.2,8.6-52.6,8.6-52.6h19.7l-2.3,11.6h10.1L1175.7,266.8L1175.7,266.8z M1237.7,293.5h-39.3c-1.3,11.1,5.7,15.8,17.2,15.8
	c7.1,0,13.4-1.5,20.5-4.8l-3.3,19.2c-6.8,2.1-13.3,3.1-20.2,3.1c-22.1,0-33.6-11.8-33.6-34.4c0-26.4,14.7-45.8,34.6-45.8
	c16.3,0,26.7,10.8,26.7,27.9C1240.2,280.1,1239.4,285.6,1237.7,293.5L1237.7,293.5z M1281.8,270.2c-11.1-1.2-12.8,8-19.9,55.2H1242
	l0.9-5.2c3.4-23.9,7.9-48.1,10.4-71.9h18.2c0.2,3.9-0.7,7.7-1.2,11.7c6.1-9.1,10.7-14,19-12.2
	C1286.9,252.1,1283.6,260.5,1281.8,270.2L1281.8,270.2z M1341.4,323.9c-7.3,2.1-12,2.8-17.5,2.8c-21.4,0-34.7-15.7-34.7-40.9
	c0-33.9,18.4-57.6,44.7-57.6c8.7,0,18.9,3.8,21.8,4.9l-3.3,20.6c-7.1-3.7-12.2-5.1-17.7-5.1c-14.8,0-25.2,14.6-25.2,35.5
	c0,14.4,7,23.1,18.5,23.1c4.9,0,10.3-1.6,16.9-4.9L1341.4,323.9L1341.4,323.9z M1411.4,284.5c-1.7,11.1-5.4,35.1-5.9,40.9h-16.4
	l0.4-8c-5,6.3-11.8,9.3-20.8,9.3c-10.8,0-18.1-8.6-18.1-21c0-18.8,12.8-29.7,34.8-29.7c2.3,0,5.1,0.2,8.1,0.6c0.6-2.6,0.8-3.6,0.8-5
	c0-5.1-3.4-7-12.7-7c-9.7-0.1-17.7,2.4-21,3.5c0.2-1.3,2.7-17.3,2.7-17.3c9.9-3,16.4-4.1,23.7-4.1c17.1,0,26.1,7.8,26.1,22.6
	C1413.1,273.1,1412.4,278,1411.4,284.5L1411.4,284.5z M1435.3,325.4h-19.8l0.9-5.2c3.4-23.9,7.8-48.1,10.3-71.9h18.2
	c0.2,3.9-0.7,7.7-1.2,11.7c6.1-9.1,10.7-14,19-12.2c-2.5,4.3-5.8,12.7-7.6,22.4C1444.2,269,1442.4,278.2,1435.3,325.4L1435.3,325.4z
	 M1498.5,325.4l0.9-7.2c-5.5,5.9-11.1,8.5-18.3,8.5c-14.4,0-24-12.7-24-32c0-25.7,14.8-47.3,32.3-47.3c7.7,0,13.5,3.2,19,10.5
	l4.4-27.4h19.6l-15.1,94.8H1498.5L1498.5,325.4z"/>
</svg>
